<?xml version="1.0" encoding="utf-8"?>
<!-- Generator: Adobe Illustrator 27.5.0, SVG Export Plug-In . SVG Version: 6.00 Build 0)  -->
<svg version="1.1" xmlns="http://www.w3.org/2000/svg" xmlns:xlink="http://www.w3.org/1999/xlink" x="0px" y="0px"
	 viewBox="0 0 500 500.001" style="enable-background:new 0 0 500 500.001;" xml:space="preserve">

<g id="OBJECTS">
	<path style="fill:#EB1C6C;" d="M270.61,261.903l8.707-8.707c-1.092,6.962-4.666,12.792-9.939,16.738
		C270.321,267.209,270.571,264.339,270.61,261.903z M223.446,188.822l9.607,7.99l-9.607,7.99l-9.606-7.99L223.446,188.822z
		 M212.853,262.249v-61.706l8.907,7.409v65.598c0,3.86,0.634,7.539,1.795,10.939C217.006,279.531,212.853,271.17,212.853,262.249z
		 M252.983,302.181c-15.546,0-27.724-12.576-27.724-28.631v-65.704l8.78-7.303v55.033c0,7.275,1.655,13.914,4.56,19.466
		c0.063,0.182,0.151,0.355,0.271,0.507c5.373,9.884,14.781,16.181,25.941,16.181c4.287,0,8.344-0.834,12.02-2.351
		C271.593,297.287,262.726,302.181,252.983,302.181z M280.448,283.588c-0.252,0.091-0.482,0.236-0.67,0.433
		c-4.244,2.678-9.356,4.209-14.967,4.209c-8.135,0-15.219-3.849-20.129-10.18c2.272,0.587,4.727,0.911,7.195,0.911
		c16.732,0,29.223-10.87,31.055-26.363l9.133,9.132C291.851,271.034,287.4,278.9,280.448,283.588z"/>
	<path style="fill:#EB1C6C;" d="M230.146,150.515l7.355,8.843h-10.487l-7.355-8.843H230.146z M227.014,162.858H237.5l-7.355,8.843
		h-10.487L227.014,162.858z M215.927,151.502l7.99,9.606l-7.99,9.607l-7.99-9.607L215.927,151.502z"/>
</g>
</svg>
